50/50 on hauska ja liikuttava tarina ystävyydestä, rakkaudesta ja selviytymisestä – ja huumorin huojentavasta voimasta kovan paikan edessä.

Adam (Gordon-Levitt) on 27-vuotias, kiltti, tunnollinen ja kunnollinen kaveri, jolla on terveet elämäntavat, viehättävä tyttöystävä ja työ, jossa hän viihtyy. Kaikki muuttuu, kun Adam saa tietää sairastavansa harvinaista syövän muotoa. Adam ottaa uutisen vastaan tyynesti, ympärillä olevilla ihmisillä on suurempia vaikeuksia sopeutua tietoon. Suorasukaisimmin asiasta järkyttyy Adamin paras kaveri, Kyle (Rogen), jonka lohdutusyritykset ovat yhtä huonoja kuin ne ovat hauskojakin.

Enemmän kuin sairaskertomus, 50/50 on ystävyyden ja rakkauden kuvaus ja tiukkaan tilanteeseen joutuvan nuoren miehen kasvutarina.


Video
ID                               : 224 (0xE0)
Format                           : MPEG Video
Format version                   : Version 2
Format profile                   : Main@Main
Format settings, BVOP            : No
Format settings, Matrix          : Default
Format settings, GOP             : M=1, N=12
Bit rate                         : 5 410 Kbps
Width                            : 720 pixels
Height                           : 576 pixels
Display aspect ratio             : 16:9
Frame rate                       : 25.000 fps
Standard                         : PAL
Color space                      : YUV
Chroma subsampling               : 4:2:0
Bit depth                        : 8 bits
Scan type                        : Progressive
Compression mode                 : Lossy
Bits/(Pixel*Frame)               : 0.522
Stream size                      : 927 MiB (91%)

Audio
ID                               : 189 (0xBD)-128 (0x80)
Format                           : AC-3
Format/Info                      : Audio Coding 3
Mode extension                   : CM (complete main)
Muxing mode                      : DVD-Video
Bit rate mode                    : Constant
Bit rate                         : 448 Kbps
Channel(s)                       : 6 channels
Channel positions                : Front: L C R, Side: L R, LFE
Sampling rate                    : 48.0 KHz
Bit depth                        : 16 bits
Compression mode                 : Lossy
Stream size                      : 76.6 MiB (7%)

Source:50.50.2011.720p.BluRay.x264